<svg width="28" height="28" viewBox="0 0 28 28" fill="none" xmlns="http://www.w3.org/2000/svg">
<g id="Frame 16">
<path id="Vector" d="M23.8161 25.8608C23.9233 25.6944 23.9604 25.4924 23.9193 25.2987C23.8782 25.1051 23.7622 24.9356 23.5966 24.8272C22.7857 24.3009 21.8447 23.6847 20.8332 22.9895C21.2271 21.4072 21.4813 19.7933 21.5928 18.1665C21.7549 15.2922 21.2621 12.9817 20.126 11.1681C17.9142 7.66443 13.6997 6.80364 10.3089 6.10942C8.22389 5.68404 6.25731 5.28785 5.4525 4.38648C5.3578 4.28106 5.23517 4.20467 5.09883 4.16615C4.96249 4.12764 4.81803 4.12858 4.6822 4.16887C4.54637 4.20916 4.42474 4.28715 4.33141 4.39379C4.23808 4.50043 4.17688 4.63136 4.1549 4.77138C4.06183 5.22418 2.59795 15.6166 8.09179 21.0774C10.8001 23.7605 14.6994 24.7537 19.6942 24.0216C20.8192 24.8359 21.8627 25.4954 22.783 26.0804C22.9492 26.1877 23.1512 26.2248 23.3447 26.1836C23.5383 26.1425 23.7077 26.0264 23.8161 25.8608ZM9.13473 20.0173C5.25315 16.1793 5.34087 9.16336 5.50288 6.28907C6.93943 6.92229 8.4548 7.35878 10.008 7.58674C13.2804 8.25175 16.9829 9.00859 18.8575 11.9676C20.2901 14.2485 20.501 17.5643 19.5051 22.0511C15.5669 19.216 11.1242 15.3463 9.74544 10.9134C9.6782 10.7342 9.545 10.5875 9.37315 10.5035C9.20129 10.4194 9.00378 10.4042 8.82112 10.4611C8.63845 10.518 8.48446 10.6427 8.3907 10.8095C8.29694 10.9764 8.27052 11.1728 8.31685 11.3585C9.73211 15.9436 13.9504 19.8007 17.8618 22.7093C14.1402 22.9576 11.2188 22.0571 9.15012 20.0107L9.13473 20.0173Z" fill="#359740"/>
</g>
</svg>
