<svg width="28" height="28" viewBox="0 0 28 28" fill="none" xmlns="http://www.w3.org/2000/svg">
<g id="Frame 15">
<path id="Vector 2" d="M7.01166 6.54042C6.82791 7.12401 7.28417 8.4152 7.4852 8.64027L7.31006 8.9375L10.8536 21.3107C11.0528 22.0598 11.6301 22.1069 11.8939 22.0368L21.1521 19.5754C22.0716 19.4647 22.2297 18.9548 22.1938 18.7136L18.7839 5.88716L18.4052 5.73718C18.5609 5.47298 18.6515 4.11439 18.169 3.57423C17.5659 2.89903 7.24134 5.81093 7.01166 6.54042Z" stroke="#359740" stroke-width="1.5"/>
<path id="Vector 1" d="M4.03821 13.1509C3.95213 13.7724 4.69232 14.897 4.95241 15.0577L4.82058 15.3979L11.0199 26.415C11.3786 27.0865 12.0104 26.9648 12.2814 26.82L21.795 21.7375C22.7655 21.3629 22.8381 20.8205 22.7531 20.5962L16.6109 9.09906L16.1736 9.06296C16.2908 8.76059 16.1275 7.41169 15.5033 7.02585C14.7231 6.54354 4.14582 12.3741 4.03821 13.1509Z" fill="white" stroke="#359740" stroke-width="1.5"/>
</g>
</svg>
