<svg width="46" height="46" viewBox="0 0 46 46" fill="none" xmlns="http://www.w3.org/2000/svg">
<g id="ant-design:fire-filled">
<path id="Vector" d="M36.2648 21.7765C35.4964 20.047 34.3793 18.4947 32.9835 17.2167L31.8317 16.1599C31.7926 16.125 31.7455 16.1002 31.6946 16.0877C31.6437 16.0753 31.5905 16.0755 31.5397 16.0884C31.4889 16.1013 31.442 16.1265 31.4032 16.1617C31.3644 16.1969 31.3349 16.2411 31.3171 16.2905L30.8026 17.7669C30.482 18.6931 29.8922 19.6391 29.057 20.5692C29.0016 20.6286 28.9383 20.6444 28.8948 20.6484C28.8512 20.6523 28.7839 20.6444 28.7246 20.589C28.6691 20.5415 28.6414 20.4703 28.6454 20.399C28.7918 18.0162 28.0794 15.3286 26.5199 12.4036C25.2295 9.97329 23.4365 8.07734 21.1962 6.75532L19.5615 5.79349C19.3477 5.66683 19.0746 5.83307 19.0865 6.08244L19.1736 7.98234C19.2329 9.28061 19.0825 10.4285 18.7263 11.3824C18.2909 12.55 17.6655 13.6346 16.866 14.6083C16.3096 15.285 15.6789 15.897 14.9859 16.433C13.3167 17.7161 11.9595 19.3601 11.0159 21.2421C10.0745 23.1405 9.58416 25.2306 9.58301 27.3495C9.58301 29.2177 9.95111 31.0266 10.6794 32.7326C11.3826 34.3751 12.3975 35.8657 13.6678 37.1222C14.9502 38.3888 16.4385 39.3862 18.097 40.0789C19.8148 40.7993 21.6355 41.1634 23.5156 41.1634C25.3958 41.1634 27.2165 40.7993 28.9343 40.0828C30.5887 39.3942 32.0931 38.3899 33.3635 37.1261C34.6459 35.8595 35.6513 34.3792 36.3519 32.7365C37.0791 31.0352 37.4521 29.2037 37.4483 27.3535C37.4483 25.4219 37.0525 23.5457 36.2648 21.7765Z" fill="#E55C5C"/>
</g>
</svg>
