<svg width="32" height="32" viewBox="0 0 32 32" fill="none" xmlns="http://www.w3.org/2000/svg">
<g id="Flower">
<path id="Vector" d="M9.00738 12.2449C8.42404 12.5926 7.81359 12.8008 7.16411 12.8705C6.72653 12.9197 6.31034 12.8689 5.96225 12.734C5.39157 12.5077 4.96815 12.1002 4.70753 11.5272C4.64739 11.395 4.64325 11.2418 4.70235 11.1008C4.94431 10.5146 5.35268 10.1031 5.92197 9.85711C6.26354 9.70954 6.68372 9.65206 7.12014 9.68451C8.02232 9.75681 8.84852 10.0985 9.6437 10.7015L10.0747 10.6936C10.1648 10.3224 10.3602 9.98184 10.6343 9.70018L10.4098 9.32353C9.47448 8.96593 8.74969 8.43927 8.22083 7.70868C7.95958 7.35394 7.79469 6.97288 7.74075 6.6004C7.64989 5.98846 7.79275 5.42397 8.16014 4.91239C8.24485 4.79342 8.37806 4.71402 8.52301 4.6961C9.14775 4.61629 9.71225 4.75915 10.2073 5.13016C10.5093 5.35479 10.766 5.68109 10.9538 6.07964C11.3403 6.89511 11.4587 7.78316 11.3284 8.77596L11.5529 9.1526C11.9283 9.04089 12.3236 9.03561 12.6929 9.13297L12.9049 8.75759C12.75 7.76672 12.8425 6.87744 13.2062 6.05681C13.3825 5.6529 13.6311 5.31798 13.9279 5.08498C14.4105 4.70397 14.9713 4.53777 15.602 4.60379C15.7469 4.61705 15.8797 4.69355 15.9747 4.8112C16.3593 5.31028 16.5163 5.87656 16.4394 6.48893C16.3924 6.85929 16.2391 7.24951 15.9877 7.61102C15.6175 8.14918 15.1439 8.58708 14.5606 8.93479C14.3355 9.06895 14.0922 9.18288 13.8387 9.29036L13.6267 9.66574C13.7612 9.79726 13.8891 9.93886 13.9904 10.1088C14.0917 10.2788 14.1554 10.4587 14.2072 10.6395L14.6455 10.6334C15.4213 10.0029 16.2386 9.64028 17.1403 9.54476C17.5779 9.49559 17.9941 9.54632 18.3422 9.68121C18.9129 9.90755 19.3363 10.315 19.5969 10.888C19.657 11.0203 19.6566 11.1762 19.6021 11.3145C19.4026 11.7944 19.0916 12.1604 18.6736 12.4095C18.5817 12.4643 18.4871 12.5144 18.3871 12.5554C18.0455 12.703 17.6299 12.7577 17.1889 12.728C16.2867 12.6557 15.4605 12.314 14.6699 11.7083L14.2389 11.7162C14.1507 12.08 13.9553 12.4206 13.6858 12.6995C13.7652 12.8327 13.8492 12.9632 13.9286 13.0964C14.8474 13.4576 15.5621 13.9778 16.0901 14.6965C16.3513 15.0512 16.5162 15.4323 16.5701 15.8048C16.6268 16.1819 16.5836 16.5376 16.4625 16.8774C16.858 17.4261 17.2563 17.9481 17.6455 18.4444C17.6907 18.0502 17.8064 17.67 18.0047 17.3028C18.4306 16.5136 19.1531 15.9397 20.0866 15.6572C20.8135 15.4356 21.573 15.3937 22.3291 15.5344C22.5189 15.5707 22.6799 15.7051 22.7417 15.8923C22.8035 16.0796 22.7562 16.2821 22.6228 16.4239C22.2493 16.8208 21.7749 17.5393 21.6692 18.2497C21.5046 19.3626 20.8911 20.0147 20.2067 20.4226C20 20.5458 19.7934 20.6378 19.584 20.7253C21.2717 22.5331 22.8235 23.7371 24.1253 24.2186C24.4038 24.3203 24.5441 24.6289 24.4424 24.9074C24.3962 25.0283 24.3143 25.1207 24.2133 25.1809C24.0801 25.2603 23.9113 25.28 23.7537 25.2245C22.8166 24.8742 21.8545 24.2524 20.9095 23.4711L20.8314 23.5177C20.448 23.8458 20.0151 24.1847 19.5374 24.4695C18.6372 25.0061 17.565 25.3588 16.3259 25.1076C15.4423 24.9308 14.2559 25.1649 13.5096 25.4168C13.304 25.4896 13.0786 25.4247 12.9396 25.2647C12.8007 25.1048 12.7665 24.8699 12.8625 24.6758C13.273 23.8397 13.864 23.0766 14.6206 22.4139C15.5685 21.5812 16.6484 21.0744 17.7419 20.9455C17.9346 20.9241 18.1208 20.9127 18.3079 20.9132C18.2896 20.893 18.2686 20.8682 18.2503 20.848C17.3371 19.8173 16.492 18.7336 15.7475 17.7145C15.1365 17.7861 14.584 17.6423 14.1063 17.2796C13.8043 17.055 13.5476 16.7287 13.3598 16.3301C12.9734 15.5147 12.8549 14.6266 12.9806 13.6366L12.7561 13.2599C12.3807 13.3716 11.9855 13.3769 11.6162 13.2795L11.4042 13.6549C11.559 14.6458 11.4666 15.5351 11.1029 16.3557C10.9266 16.7596 10.678 17.0945 10.3811 17.3275C10.2974 17.3961 10.2083 17.4554 10.1165 17.5102C9.69847 17.7593 9.22406 17.8616 8.71158 17.806C8.56399 17.7881 8.43397 17.7162 8.33894 17.5986C7.9543 17.0995 7.79729 16.5332 7.87426 15.9208C7.92119 15.5505 8.07455 15.1603 8.32595 14.7988C8.84165 14.0556 9.54937 13.5092 10.4703 13.1222L10.6842 12.7395C10.5497 12.6079 10.4218 12.4663 10.3205 12.2964C10.2192 12.1264 10.1555 11.9465 10.1037 11.7657L9.67269 11.7736C9.44841 11.9509 9.23245 12.1107 9.00738 12.2449ZM7.03361 10.7508C6.76589 10.7298 6.52828 10.7594 6.34005 10.8405C6.105 10.937 5.93125 11.0842 5.80043 11.2929C5.93556 11.4987 6.11856 11.6386 6.35581 11.7338C6.54359 11.8086 6.78287 11.834 7.05165 11.8045C7.59655 11.7474 8.09137 11.5645 8.57463 11.2578C8.07754 10.9565 7.57638 10.7946 7.03361 10.7508ZM15.099 7.00778C15.2528 6.78538 15.3442 6.5628 15.3677 6.36203C15.3996 6.11268 15.3562 5.88329 15.2441 5.66379C14.9983 5.67958 14.7862 5.76242 14.5895 5.92326C14.4332 6.04752 14.2896 6.24519 14.1806 6.49065C13.9609 6.98889 13.865 7.50675 13.8908 8.08274C14.3979 7.80542 14.7914 7.45258 15.099 7.00778ZM17.2635 11.6626C17.5312 11.6836 17.7688 11.654 17.9571 11.5729C18.1894 11.4718 18.3677 11.3219 18.4967 11.1205C18.3616 10.9147 18.1785 10.7748 17.944 10.6842C17.7563 10.6094 17.517 10.584 17.2482 10.6134C16.7033 10.6706 16.2131 10.8507 15.7252 11.1602C16.2196 11.4569 16.7207 11.6189 17.2635 11.6626ZM20.6123 18.0954C20.6956 17.5353 20.931 16.9903 21.2111 16.5308C20.9368 16.5511 20.6671 16.5998 20.3927 16.6825C19.9355 16.8242 19.3037 17.1323 18.9368 17.8117C18.7219 18.2137 18.5046 18.8413 18.9236 19.8366C19.9994 19.4692 20.4805 18.9708 20.6123 18.0954ZM9.19815 15.4056C9.04436 15.628 8.95292 15.8506 8.92942 16.0514C8.90025 16.3053 8.93628 16.5329 9.05303 16.7496C9.29885 16.7338 9.51093 16.651 9.70765 16.4901C9.86391 16.3659 10.0075 16.1682 10.1165 15.9228C10.3362 15.4245 10.4321 14.9066 10.4063 14.3307C9.89926 14.608 9.50573 14.9608 9.19815 15.4056ZM9.56378 5.99308C9.36064 5.84026 9.14627 5.76261 8.89869 5.75456C8.79259 5.97343 8.75893 6.19893 8.79212 6.45305C8.82364 6.65214 8.92388 6.87252 9.07915 7.09123C9.40434 7.53236 9.80136 7.87466 10.3123 8.13658C10.3222 7.55794 10.2146 7.04316 9.97942 6.55461C9.87008 6.30852 9.72391 6.11551 9.56378 5.99308ZM17.8636 22.006C16.9866 22.1117 16.1041 22.5319 15.318 23.2183C15.0118 23.488 14.7377 23.7696 14.4966 24.0752C15.1719 23.9653 15.901 23.9353 16.5362 24.061C17.6681 24.2889 18.7302 23.8986 20.0752 22.7607C19.5029 22.1245 18.8048 21.8932 17.8636 22.006ZM14.7333 16.4203C14.9365 16.5731 15.1508 16.6508 15.3984 16.6588C15.5045 16.44 15.5428 16.2117 15.505 15.9604C15.4735 15.7613 15.3732 15.5409 15.218 15.3222C14.8928 14.881 14.4958 14.5387 13.9848 14.2768C13.9749 14.8555 14.0825 15.3702 14.3177 15.8588C14.427 16.1049 14.5732 16.2979 14.7333 16.4203ZM12.6961 12.1253C13.2014 11.8242 13.3684 11.1644 13.0672 10.6591C12.766 10.1539 12.1062 9.98689 11.601 10.2881C11.0957 10.5892 10.9287 11.249 11.2299 11.7543C11.5311 12.2595 12.1909 12.4265 12.6961 12.1253Z" fill="#359740"/>
</g>
</svg>
