<svg width="22" height="22" viewBox="0 0 22 22" fill="none" xmlns="http://www.w3.org/2000/svg">
<g id="Frame" clip-path="url(#clip0_7954_115)">
<g id="Group">
<path id="Vector" d="M19.3859 6.17538C18.139 4.27231 16.1867 3.07256 14.092 2.73469C14.1134 2.58989 14.092 2.43131 14.0136 2.2934C13.864 2.03139 13.5576 1.88659 13.2441 1.94864L8.91924 2.81054L8.32074 1.03159C8.23524 0.776467 8.00012 0.590297 7.72224 0.562717C7.44437 0.535136 7.17362 0.666144 7.03112 0.90058L5.74149 3.03118C4.86512 2.38304 3.78924 1.94175 2.69912 1.94175C2.30724 1.94175 1.98662 2.25203 1.98662 2.63126C1.98662 3.0105 2.30724 3.32078 2.69912 3.32078C3.52562 3.32078 4.35212 3.70691 5.00762 4.22405L0.882244 6.88558C0.618619 7.05106 0.504619 7.36824 0.597244 7.65784C0.682744 7.94743 0.960619 8.14739 1.27412 8.14739H3.17649L2.00799 12.0983C1.92249 12.4017 2.05074 12.7189 2.32862 12.8775C2.44262 12.9464 2.57087 12.9671 2.69912 12.9671C2.71337 15.2218 3.74649 17.4076 5.64887 18.8142C8.46324 20.8897 12.5601 21.9446 17.8326 21.9446C18.0321 21.9446 18.2316 21.9446 18.4311 21.9377C20.0841 21.9101 21.4877 20.6897 21.6944 19.0969C22.3712 13.8911 21.5946 9.54711 19.3859 6.17538ZM20.2836 18.9245C20.1625 19.8416 19.3645 20.5449 18.4169 20.5587C13.18 20.6345 9.17574 19.683 6.51812 17.7179C4.65137 16.3388 3.81774 14.029 4.23099 11.8087L5.25699 10.8503C4.31649 13.1257 4.99337 15.7252 6.95274 17.1732C9.38237 18.9659 13.0446 19.8761 17.8326 19.8761C18.025 19.8761 18.2174 19.8761 18.4169 19.8692C18.8087 19.8623 19.1222 19.5451 19.1151 19.1659C19.108 18.7866 18.7874 18.4901 18.4026 18.4901C18.3955 18.4901 18.3955 18.4901 18.3884 18.4901C13.6502 18.5729 10.0877 17.7455 7.82199 16.0768C6.29724 14.9529 5.82699 12.8499 6.71049 11.0847L8.55587 13.4015C8.68412 13.567 8.89787 13.6635 9.11162 13.6635C9.18999 13.6635 9.26837 13.6497 9.33962 13.629C9.63174 13.5325 9.82412 13.2705 9.82412 12.974V8.06465L14.8971 7.45098C15.2177 7.40961 15.4742 7.16828 15.517 6.858C15.5597 6.54772 15.3816 6.25122 15.0824 6.12711L12.0756 4.93425L12.9876 4.01719C15.0182 4.05167 16.9919 5.08594 18.1817 6.90626C20.2052 10.0091 20.9177 14.0497 20.2836 18.9245ZM5.94099 5.27211C5.95524 5.26522 5.95524 5.25832 5.96237 5.25143C6.15474 5.54792 6.26162 5.83751 6.26162 6.07885C6.26162 6.45808 6.58224 6.76836 6.97412 6.76836C7.36599 6.76836 7.68662 6.45808 7.68662 6.07885C7.68662 5.42381 7.34462 4.68602 6.78887 4.01719L7.45149 2.92086L7.75787 3.83102C7.87187 4.16889 8.22812 4.36195 8.57724 4.293L11.2634 3.75518L10.3086 4.7136C10.1447 4.87909 10.0735 5.11352 10.1234 5.33417C10.1732 5.55481 10.33 5.74098 10.5509 5.83062L12.0186 6.40981L9.01899 6.77526C8.66987 6.81663 8.39912 7.11312 8.39912 7.45788V10.9468L6.61787 8.7059C6.49674 8.54731 6.30437 8.45078 6.10487 8.43699C6.09062 8.43699 6.06924 8.43699 6.05499 8.43699C5.86974 8.43699 5.69162 8.50594 5.55624 8.63006L4.11699 9.98151L4.80812 7.63715C4.87224 7.43719 4.82949 7.21655 4.69412 7.04417C4.55874 6.87179 4.34499 6.76836 4.12412 6.76836H3.62537L5.94099 5.27211Z" fill="#359740"/>
<path id="Vector_2" d="M12.1687 10.7047C12.3112 10.8357 12.4893 10.9047 12.6745 10.9047C12.8598 10.9047 13.0379 10.8357 13.1804 10.7047C13.4583 10.4358 13.4583 10.0014 13.1804 9.73251L12.4679 9.04299C12.19 8.77408 11.7412 8.77408 11.4633 9.04299C11.1854 9.3119 11.1854 9.7463 11.4633 10.0152L12.1687 10.7047Z" fill="#359740"/>
<path id="Vector_3" d="M16.4441 10.0153C16.5866 10.1463 16.7647 10.2152 16.9499 10.2152C17.1352 10.2152 17.3133 10.1463 17.4558 10.0153C17.7337 9.74636 17.7337 9.31197 17.4558 9.04305L16.7433 8.35354C16.4654 8.08463 16.0166 8.08463 15.7387 8.35354C15.4608 8.62245 15.4608 9.05685 15.7387 9.32576L16.4441 10.0153Z" fill="#359740"/>
<path id="Vector_4" d="M13.1804 14.5528L12.4679 13.8633C12.19 13.5944 11.7412 13.5944 11.4633 13.8633C11.1854 14.1322 11.1854 14.5666 11.4633 14.8355L12.1758 15.525C12.3112 15.6629 12.4893 15.7319 12.6745 15.7319C12.8598 15.7319 13.0379 15.6629 13.1804 15.5319C13.4583 15.263 13.4583 14.8217 13.1804 14.5528Z" fill="#359740"/>
<path id="Vector_5" d="M15.0193 13.463C15.1618 13.594 15.3399 13.663 15.5251 13.663C15.7104 13.663 15.8885 13.594 16.031 13.463C16.3089 13.1941 16.3089 12.7597 16.031 12.4908L15.3185 11.8013C15.0406 11.5324 14.5917 11.5324 14.3139 11.8013C14.036 12.0702 14.036 12.5046 14.3139 12.7735L15.0193 13.463Z" fill="#359740"/>
<path id="Vector_6" d="M17.8696 13.463L18.5821 14.1525C18.7246 14.2835 18.9028 14.3524 19.088 14.3524C19.2733 14.3524 19.4514 14.2835 19.5939 14.1525C19.8718 13.8836 19.8718 13.4492 19.5939 13.1803L18.8814 12.4907C18.6035 12.2218 18.1546 12.2218 17.8768 12.4907C17.5918 12.7528 17.5918 13.1941 17.8696 13.463Z" fill="#359740"/>
<path id="Vector_7" d="M16.7433 15.2422C16.4654 14.9733 16.0166 14.9733 15.7387 15.2422C15.4608 15.5111 15.4608 15.9455 15.7387 16.2144L16.4512 16.9039C16.5866 17.0418 16.7647 17.1108 16.9499 17.1108C17.1352 17.1108 17.3133 17.0418 17.4558 16.9108C17.7337 16.6419 17.7337 16.2075 17.4558 15.9386L16.7433 15.2422Z" fill="#359740"/>
</g>
</g>
<defs>
<clipPath id="clip0_7954_115">
<rect width="21.375" height="21.375" fill="white" transform="translate(0.5625 0.5625)"/>
</clipPath>
</defs>
</svg>
