<svg width="24" height="24" viewBox="0 0 24 24" fill="none" xmlns="http://www.w3.org/2000/svg">
<g id="icon_cart_simple">
<path id="Vector" d="M8.88672 21.3335C9.71515 21.3335 10.3867 20.6619 10.3867 19.8335C10.3867 19.0051 9.71515 18.3335 8.88672 18.3335C8.05829 18.3335 7.38672 19.0051 7.38672 19.8335C7.38672 20.6619 8.05829 21.3335 8.88672 21.3335Z" fill="#359740"/>
<path id="Vector_2" d="M18 21.3335C18.8284 21.3335 19.5 20.6619 19.5 19.8335C19.5 19.0051 18.8284 18.3335 18 18.3335C17.1716 18.3335 16.5 19.0051 16.5 19.8335C16.5 20.6619 17.1716 21.3335 18 21.3335Z" fill="#359740"/>
<path id="Vector_3" d="M22.0537 3.58015C21.9916 3.50368 21.9134 3.4419 21.8247 3.39925C21.7359 3.3566 21.6388 3.33414 21.5403 3.33349H7.66032L8.09365 4.66682H20.667L18.887 12.6668H8.88698L5.84032 3.02015C5.80736 2.91779 5.75014 2.82492 5.67352 2.74947C5.5969 2.67401 5.50317 2.61821 5.40032 2.58682L2.66698 1.74682C2.58294 1.72099 2.49463 1.71197 2.4071 1.72028C2.31956 1.72858 2.23453 1.75404 2.15683 1.79521C1.99993 1.87835 1.88248 2.02042 1.83032 2.19015C1.77816 2.35989 1.79556 2.5434 1.87871 2.7003C1.96185 2.85721 2.10391 2.97466 2.27365 3.02682L4.66698 3.76015L7.72698 13.4268L6.63365 14.3202L6.54698 14.4068C6.27654 14.7185 6.12325 15.1147 6.11352 15.5272C6.10378 15.9397 6.23821 16.3428 6.49365 16.6668C6.67536 16.8878 6.90626 17.0632 7.16788 17.1789C7.4295 17.2947 7.71458 17.3476 8.00032 17.3335H19.127C19.3038 17.3335 19.4734 17.2633 19.5984 17.1382C19.7234 17.0132 19.7937 16.8436 19.7937 16.6668C19.7937 16.49 19.7234 16.3204 19.5984 16.1954C19.4734 16.0704 19.3038 16.0002 19.127 16.0002H7.89365C7.81688 15.9975 7.74209 15.9752 7.67649 15.9352C7.61089 15.8952 7.55671 15.839 7.51918 15.772C7.48165 15.705 7.46204 15.6294 7.46224 15.5526C7.46243 15.4758 7.48244 15.4003 7.52032 15.3335L9.12698 14.0002H19.4203C19.5744 14.0039 19.7251 13.9542 19.8466 13.8594C19.9682 13.7645 20.0531 13.6305 20.087 13.4802L22.2003 4.14682C22.2206 4.04743 22.2179 3.94473 22.1925 3.84653C22.1671 3.74833 22.1196 3.65723 22.0537 3.58015Z" fill="#359740"/>
</g>
</svg>
