<svg width="16" height="16" viewBox="0 0 16 16" fill="none" xmlns="http://www.w3.org/2000/svg">
<g id="star">
<path id="Vector" d="M14.6663 6.73313C14.733 6.3998 14.4663 5.9998 14.133 5.9998L10.333 5.46646L8.59967 1.9998C8.53301 1.86646 8.46634 1.7998 8.33301 1.73313C7.99967 1.53313 7.59967 1.66646 7.39967 1.9998L5.73301 5.46646L1.93301 5.9998C1.73301 5.9998 1.59967 6.06646 1.53301 6.1998C1.26634 6.46646 1.26634 6.86646 1.53301 7.13313L4.26634 9.79979L3.59967 13.5998C3.59967 13.7331 3.59967 13.8665 3.66634 13.9998C3.86634 14.3331 4.26634 14.4665 4.59967 14.2665L7.99967 12.4665L11.3997 14.2665C11.4663 14.3331 11.5997 14.3331 11.733 14.3331C11.7997 14.3331 11.7997 14.3331 11.8663 14.3331C12.1997 14.2665 12.4663 13.9331 12.3997 13.5331L11.733 9.73313L14.4663 7.06646C14.5997 6.9998 14.6663 6.86646 14.6663 6.73313Z" fill="#FFCF55"/>
</g>
</svg>
